<?xml version="1.0" encoding="UTF-8" standalone="no"?>
<!DOCTYPE svg PUBLIC "-//W3C//DTD SVG 1.1//EN" "http://www.w3.org/Graphics/SVG/1.1/DTD/svg11.dtd">
<svg width="100%" height="100%" viewBox="0 0 2550 3300" version="1.1" xmlns="http://www.w3.org/2000/svg" xmlns:xlink="http://www.w3.org/1999/xlink" xml:space="preserve" xmlns:serif="http://www.serif.com/" style="fill-rule:evenodd;clip-rule:evenodd;stroke-linejoin:round;stroke-miterlimit:2;">
    <g transform="matrix(0.941176,0,0,0.818182,75,300)">
        <clipPath id="_clip1">
            <rect x="0" y="0" width="1275" height="1100"/>
        </clipPath>
        <g clip-path="url(#_clip1)">
            <g transform="matrix(1.22942,0,0,1.62906,-292.513,-444.35)">
                <rect x="237.927" y="272.765" width="1037.07" height="675.235" style="fill:rgb(2,70,123);"/>
            </g>
            <g transform="matrix(1.43078,0,0,1.64587,276.615,-808.206)">
                <g transform="matrix(42.8389,0,0,42.8389,640.247,1102.15)">
                </g>
                <text x="460.153px" y="1102.15px" style="font-family:'Oswald-Regular', 'Oswald';font-size:42.839px;fill:rgb(249,166,64);">ORGANIZER</text>
            </g>
            <g transform="matrix(0.347328,0,0,0.39954,11.194,15.0159)">
                <g transform="matrix(4.76153,0,0,4.76153,-1464.74,-4717.94)">
                    <g transform="matrix(36.4826,0,0,36.4826,926.41,1102.15)">
                    </g>
                    <text x="352.648px" y="1102.15px" style="font-family:'Oswald-Regular', 'Oswald';font-size:36.483px;fill:white;">PROGRAMMING LANGUA<tspan x="678.328px " y="1102.15px ">G</tspan>ES AND SYSTEMS</text>
                </g>
                <g transform="matrix(3.74465,0,0,3.74465,-1503.58,-3435.59)">
                    <g transform="matrix(42.8389,0,0,42.8389,602.678,1102.15)">
                    </g>
                    <text x="460.153px" y="1102.15px" style="font-family:'Oswald-Regular', 'Oswald';font-size:42.839px;fill:white;">SEMINAR</text>
                </g>
                <g transform="matrix(3.74465,0,0,3.74465,405.782,-3435.59)">
                    <g transform="matrix(42.8389,0,0,42.8389,678.845,1102.15)">
                    </g>
                    <text x="451.927px" y="1102.15px" style="font-family:'Oswald-Medium', 'Oswald';font-weight:500;font-size:42.839px;fill:rgb(249,166,64);">MA<tspan x="502.22px " y="1102.15px ">Y</tspan> 19, 2023</text>
                </g>
                <g transform="matrix(3.74465,0,0,3.74465,-1509.5,-3770.96)">
                    <g transform="matrix(42.8389,0,0,42.8389,652.114,1102.15)">
                    </g>
                    <text x="460.153px" y="1102.15px" style="font-family:'Oswald-Regular', 'Oswald';font-size:42.839px;fill:white;">NEW JERSEY</text>
                </g>
            </g>
            <g transform="matrix(0.360809,-0.0567519,0.046054,0.387442,-52.9477,-30.2554)">
                <g transform="matrix(1.02417,0.163216,-0.268816,2.28085,361.026,-865.601)">
                    <path d="M1727.67,-198.343L3764.05,1322.26L3791.81,-219.555L1727.67,-198.343Z" style="fill:white;fill-opacity:0.52;"/>
                </g>
                <g transform="matrix(0.988777,-0.296468,0.615553,2.22231,-28.8937,435.286)">
                    <path d="M1727.67,-198.343L3764.05,1322.26L3791.81,-219.555L1727.67,-198.343Z" style="fill:white;fill-opacity:0.52;"/>
                </g>
                <g transform="matrix(0.783617,-0.705252,1.39424,1.78222,107.964,1806.07)">
                    <path d="M1727.67,-198.343L3764.05,1322.26L3791.81,-219.555L1727.67,-198.343Z" style="fill:white;fill-opacity:0.52;"/>
                </g>
            </g>
            <g transform="matrix(1.15668,0,0,1.33056,-115.129,-209.969)">
                <g transform="matrix(139.713,0,0,139.713,454.944,659.35)">
                </g>
                <g transform="matrix(139.713,0,0,139.713,846.28,659.35)">
                </g>
                <text x="454.944px" y="659.35px" style="font-family:'Oswald-Regular', 'Oswald';font-size:139.713px;fill:white;">&lt;Name&gt;</text>
            </g>
            <g transform="matrix(0.633911,0,0,0.729204,172.108,333.22)">
                <g transform="matrix(139.713,0,0,139.713,454.944,659.35)">
                </g>
                <g transform="matrix(139.713,0,0,139.713,572.303,659.35)">
                    <path d="M0.092,-0L0.092,-0.525L0.018,-0.525L0.018,-0.578L0.092,-0.578L0.092,-0.638C0.092,-0.667 0.094,-0.692 0.099,-0.714C0.104,-0.736 0.114,-0.753 0.129,-0.766C0.143,-0.779 0.167,-0.785 0.198,-0.785C0.209,-0.785 0.219,-0.785 0.229,-0.784C0.239,-0.783 0.248,-0.781 0.257,-0.778L0.257,-0.724C0.251,-0.725 0.244,-0.727 0.237,-0.728C0.229,-0.729 0.222,-0.729 0.216,-0.729C0.194,-0.729 0.18,-0.722 0.175,-0.709C0.169,-0.695 0.166,-0.674 0.166,-0.645L0.166,-0.578L0.328,-0.578L0.328,-0.638C0.328,-0.667 0.33,-0.692 0.335,-0.714C0.339,-0.736 0.349,-0.753 0.364,-0.766C0.379,-0.779 0.402,-0.785 0.434,-0.785C0.445,-0.785 0.455,-0.785 0.465,-0.784C0.475,-0.783 0.484,-0.781 0.493,-0.778L0.493,-0.724C0.486,-0.725 0.479,-0.727 0.472,-0.728C0.465,-0.729 0.458,-0.729 0.452,-0.729C0.43,-0.729 0.416,-0.722 0.41,-0.709C0.404,-0.695 0.401,-0.674 0.401,-0.645L0.401,-0.578L0.635,-0.578L0.635,-0L0.562,-0L0.562,-0.525L0.401,-0.525L0.401,-0L0.328,-0L0.328,-0.525L0.166,-0.525L0.166,-0L0.092,-0ZM0.562,-0.658L0.562,-0.757L0.635,-0.757L0.635,-0.658L0.562,-0.658Z" style="fill:white;fill-rule:nonzero;"/>
                </g>
                <g transform="matrix(139.713,0,0,139.713,670.381,659.35)">
                </g>
                <g transform="matrix(139.713,0,0,139.713,670.381,659.35)">
                </g>
                <g transform="matrix(139.713,0,0,139.713,670.381,659.35)">
                </g>
                <g transform="matrix(139.713,0,0,139.713,1013.24,659.35)">
                </g>
                <text x="454.944px" y="659.35px" style="font-family:'Oswald-Light', 'Oswald';font-weight:300;font-size:139.713px;fill:white;">&lt;A<tspan x="670.381px " y="659.35px ">l</tspan>ia<tspan x="782.012px " y="659.35px ">t</tspan>ion&gt;</text>
            </g>
        </g>
        <g transform="matrix(1,0,0,1,1275,0)">
            <clipPath id="_clip2">
                <rect x="0" y="0" width="1275" height="1100"/>
            </clipPath>
            <g clip-path="url(#_clip2)">
                <g transform="matrix(1.22942,0,0,1.62906,-292.513,-444.35)">
                    <rect x="237.927" y="272.765" width="1037.07" height="675.235" style="fill:rgb(2,70,123);"/>
                </g>
                <g transform="matrix(1.43078,0,0,1.64587,276.615,-808.206)">
                    <g transform="matrix(42.8389,0,0,42.8389,640.247,1102.15)">
                    </g>
                    <text x="460.153px" y="1102.15px" style="font-family:'Oswald-Regular', 'Oswald';font-size:42.839px;fill:rgb(249,166,64);">ORGANIZER</text>
                </g>
                <g transform="matrix(0.347328,0,0,0.39954,11.194,15.0159)">
                    <g transform="matrix(4.76153,0,0,4.76153,-1464.74,-4717.94)">
                        <g transform="matrix(36.4826,0,0,36.4826,926.41,1102.15)">
                        </g>
                        <text x="352.648px" y="1102.15px" style="font-family:'Oswald-Regular', 'Oswald';font-size:36.483px;fill:white;">PROGRAMMING LANGUA<tspan x="678.328px " y="1102.15px ">G</tspan>ES AND SYSTEMS</text>
                    </g>
                    <g transform="matrix(3.74465,0,0,3.74465,-1503.58,-3435.59)">
                        <g transform="matrix(42.8389,0,0,42.8389,602.678,1102.15)">
                        </g>
                        <text x="460.153px" y="1102.15px" style="font-family:'Oswald-Regular', 'Oswald';font-size:42.839px;fill:white;">SEMINAR</text>
                    </g>
                    <g transform="matrix(3.74465,0,0,3.74465,405.782,-3435.59)">
                        <g transform="matrix(42.8389,0,0,42.8389,678.845,1102.15)">
                        </g>
                        <text x="451.927px" y="1102.15px" style="font-family:'Oswald-Medium', 'Oswald';font-weight:500;font-size:42.839px;fill:rgb(249,166,64);">MA<tspan x="502.22px " y="1102.15px ">Y</tspan> 19, 2023</text>
                    </g>
                    <g transform="matrix(3.74465,0,0,3.74465,-1509.5,-3770.96)">
                        <g transform="matrix(42.8389,0,0,42.8389,652.114,1102.15)">
                        </g>
                        <text x="460.153px" y="1102.15px" style="font-family:'Oswald-Regular', 'Oswald';font-size:42.839px;fill:white;">NEW JERSEY</text>
                    </g>
                </g>
                <g transform="matrix(0.360809,-0.0567519,0.046054,0.387442,-52.9477,-30.2554)">
                    <g transform="matrix(1.02417,0.163216,-0.268816,2.28085,361.026,-865.601)">
                        <path d="M1727.67,-198.343L3764.05,1322.26L3791.81,-219.555L1727.67,-198.343Z" style="fill:white;fill-opacity:0.52;"/>
                    </g>
                    <g transform="matrix(0.988777,-0.296468,0.615553,2.22231,-28.8937,435.286)">
                        <path d="M1727.67,-198.343L3764.05,1322.26L3791.81,-219.555L1727.67,-198.343Z" style="fill:white;fill-opacity:0.52;"/>
                    </g>
                    <g transform="matrix(0.783617,-0.705252,1.39424,1.78222,107.964,1806.07)">
                        <path d="M1727.67,-198.343L3764.05,1322.26L3791.81,-219.555L1727.67,-198.343Z" style="fill:white;fill-opacity:0.52;"/>
                    </g>
                </g>
                <g transform="matrix(1.15668,0,0,1.33056,-115.129,-209.969)">
                    <g transform="matrix(139.713,0,0,139.713,454.944,659.35)">
                    </g>
                    <g transform="matrix(139.713,0,0,139.713,846.28,659.35)">
                    </g>
                    <text x="454.944px" y="659.35px" style="font-family:'Oswald-Regular', 'Oswald';font-size:139.713px;fill:white;">&lt;Name&gt;</text>
                </g>
                <g transform="matrix(0.633911,0,0,0.729204,172.108,333.22)">
                    <g transform="matrix(139.713,0,0,139.713,454.944,659.35)">
                    </g>
                    <g transform="matrix(139.713,0,0,139.713,572.303,659.35)">
                        <path d="M0.092,-0L0.092,-0.525L0.018,-0.525L0.018,-0.578L0.092,-0.578L0.092,-0.638C0.092,-0.667 0.094,-0.692 0.099,-0.714C0.104,-0.736 0.114,-0.753 0.129,-0.766C0.143,-0.779 0.167,-0.785 0.198,-0.785C0.209,-0.785 0.219,-0.785 0.229,-0.784C0.239,-0.783 0.248,-0.781 0.257,-0.778L0.257,-0.724C0.251,-0.725 0.244,-0.727 0.237,-0.728C0.229,-0.729 0.222,-0.729 0.216,-0.729C0.194,-0.729 0.18,-0.722 0.175,-0.709C0.169,-0.695 0.166,-0.674 0.166,-0.645L0.166,-0.578L0.328,-0.578L0.328,-0.638C0.328,-0.667 0.33,-0.692 0.335,-0.714C0.339,-0.736 0.349,-0.753 0.364,-0.766C0.379,-0.779 0.402,-0.785 0.434,-0.785C0.445,-0.785 0.455,-0.785 0.465,-0.784C0.475,-0.783 0.484,-0.781 0.493,-0.778L0.493,-0.724C0.486,-0.725 0.479,-0.727 0.472,-0.728C0.465,-0.729 0.458,-0.729 0.452,-0.729C0.43,-0.729 0.416,-0.722 0.41,-0.709C0.404,-0.695 0.401,-0.674 0.401,-0.645L0.401,-0.578L0.635,-0.578L0.635,-0L0.562,-0L0.562,-0.525L0.401,-0.525L0.401,-0L0.328,-0L0.328,-0.525L0.166,-0.525L0.166,-0L0.092,-0ZM0.562,-0.658L0.562,-0.757L0.635,-0.757L0.635,-0.658L0.562,-0.658Z" style="fill:white;fill-rule:nonzero;"/>
                    </g>
                    <g transform="matrix(139.713,0,0,139.713,670.381,659.35)">
                    </g>
                    <g transform="matrix(139.713,0,0,139.713,670.381,659.35)">
                    </g>
                    <g transform="matrix(139.713,0,0,139.713,670.381,659.35)">
                    </g>
                    <g transform="matrix(139.713,0,0,139.713,1013.24,659.35)">
                    </g>
                    <text x="454.944px" y="659.35px" style="font-family:'Oswald-Light', 'Oswald';font-weight:300;font-size:139.713px;fill:white;">&lt;A<tspan x="670.381px " y="659.35px ">l</tspan>ia<tspan x="782.012px " y="659.35px ">t</tspan>ion&gt;</text>
                </g>
            </g>
        </g>
        <g transform="matrix(1,0,0,1,0,1100)">
            <clipPath id="_clip3">
                <rect x="0" y="0" width="1275" height="1100"/>
            </clipPath>
            <g clip-path="url(#_clip3)">
                <g transform="matrix(1.22942,0,0,1.62906,-292.513,-444.35)">
                    <rect x="237.927" y="272.765" width="1037.07" height="675.235" style="fill:rgb(2,70,123);"/>
                </g>
                <g transform="matrix(1.43078,0,0,1.64587,276.615,-808.206)">
                    <g transform="matrix(42.8389,0,0,42.8389,640.247,1102.15)">
                    </g>
                    <text x="460.153px" y="1102.15px" style="font-family:'Oswald-Regular', 'Oswald';font-size:42.839px;fill:rgb(249,166,64);">ORGANIZER</text>
                </g>
                <g transform="matrix(0.347328,0,0,0.39954,11.194,15.0159)">
                    <g transform="matrix(4.76153,0,0,4.76153,-1464.74,-4717.94)">
                        <g transform="matrix(36.4826,0,0,36.4826,926.41,1102.15)">
                        </g>
                        <text x="352.648px" y="1102.15px" style="font-family:'Oswald-Regular', 'Oswald';font-size:36.483px;fill:white;">PROGRAMMING LANGUA<tspan x="678.328px " y="1102.15px ">G</tspan>ES AND SYSTEMS</text>
                    </g>
                    <g transform="matrix(3.74465,0,0,3.74465,-1503.58,-3435.59)">
                        <g transform="matrix(42.8389,0,0,42.8389,602.678,1102.15)">
                        </g>
                        <text x="460.153px" y="1102.15px" style="font-family:'Oswald-Regular', 'Oswald';font-size:42.839px;fill:white;">SEMINAR</text>
                    </g>
                    <g transform="matrix(3.74465,0,0,3.74465,405.782,-3435.59)">
                        <g transform="matrix(42.8389,0,0,42.8389,678.845,1102.15)">
                        </g>
                        <text x="451.927px" y="1102.15px" style="font-family:'Oswald-Medium', 'Oswald';font-weight:500;font-size:42.839px;fill:rgb(249,166,64);">MA<tspan x="502.22px " y="1102.15px ">Y</tspan> 19, 2023</text>
                    </g>
                    <g transform="matrix(3.74465,0,0,3.74465,-1509.5,-3770.96)">
                        <g transform="matrix(42.8389,0,0,42.8389,652.114,1102.15)">
                        </g>
                        <text x="460.153px" y="1102.15px" style="font-family:'Oswald-Regular', 'Oswald';font-size:42.839px;fill:white;">NEW JERSEY</text>
                    </g>
                </g>
                <g transform="matrix(0.360809,-0.0567519,0.046054,0.387442,-52.9477,-30.2554)">
                    <g transform="matrix(1.02417,0.163216,-0.268816,2.28085,361.026,-865.601)">
                        <path d="M1727.67,-198.343L3764.05,1322.26L3791.81,-219.555L1727.67,-198.343Z" style="fill:white;fill-opacity:0.52;"/>
                    </g>
                    <g transform="matrix(0.988777,-0.296468,0.615553,2.22231,-28.8937,435.286)">
                        <path d="M1727.67,-198.343L3764.05,1322.26L3791.81,-219.555L1727.67,-198.343Z" style="fill:white;fill-opacity:0.52;"/>
                    </g>
                    <g transform="matrix(0.783617,-0.705252,1.39424,1.78222,107.964,1806.07)">
                        <path d="M1727.67,-198.343L3764.05,1322.26L3791.81,-219.555L1727.67,-198.343Z" style="fill:white;fill-opacity:0.52;"/>
                    </g>
                </g>
                <g transform="matrix(1.15668,0,0,1.33056,-115.129,-209.969)">
                    <g transform="matrix(139.713,0,0,139.713,454.944,659.35)">
                    </g>
                    <g transform="matrix(139.713,0,0,139.713,846.28,659.35)">
                    </g>
                    <text x="454.944px" y="659.35px" style="font-family:'Oswald-Regular', 'Oswald';font-size:139.713px;fill:white;">&lt;Name&gt;</text>
                </g>
                <g transform="matrix(0.633911,0,0,0.729204,172.108,333.22)">
                    <g transform="matrix(139.713,0,0,139.713,454.944,659.35)">
                    </g>
                    <g transform="matrix(139.713,0,0,139.713,572.303,659.35)">
                        <path d="M0.092,-0L0.092,-0.525L0.018,-0.525L0.018,-0.578L0.092,-0.578L0.092,-0.638C0.092,-0.667 0.094,-0.692 0.099,-0.714C0.104,-0.736 0.114,-0.753 0.129,-0.766C0.143,-0.779 0.167,-0.785 0.198,-0.785C0.209,-0.785 0.219,-0.785 0.229,-0.784C0.239,-0.783 0.248,-0.781 0.257,-0.778L0.257,-0.724C0.251,-0.725 0.244,-0.727 0.237,-0.728C0.229,-0.729 0.222,-0.729 0.216,-0.729C0.194,-0.729 0.18,-0.722 0.175,-0.709C0.169,-0.695 0.166,-0.674 0.166,-0.645L0.166,-0.578L0.328,-0.578L0.328,-0.638C0.328,-0.667 0.33,-0.692 0.335,-0.714C0.339,-0.736 0.349,-0.753 0.364,-0.766C0.379,-0.779 0.402,-0.785 0.434,-0.785C0.445,-0.785 0.455,-0.785 0.465,-0.784C0.475,-0.783 0.484,-0.781 0.493,-0.778L0.493,-0.724C0.486,-0.725 0.479,-0.727 0.472,-0.728C0.465,-0.729 0.458,-0.729 0.452,-0.729C0.43,-0.729 0.416,-0.722 0.41,-0.709C0.404,-0.695 0.401,-0.674 0.401,-0.645L0.401,-0.578L0.635,-0.578L0.635,-0L0.562,-0L0.562,-0.525L0.401,-0.525L0.401,-0L0.328,-0L0.328,-0.525L0.166,-0.525L0.166,-0L0.092,-0ZM0.562,-0.658L0.562,-0.757L0.635,-0.757L0.635,-0.658L0.562,-0.658Z" style="fill:white;fill-rule:nonzero;"/>
                    </g>
                    <g transform="matrix(139.713,0,0,139.713,670.381,659.35)">
                    </g>
                    <g transform="matrix(139.713,0,0,139.713,670.381,659.35)">
                    </g>
                    <g transform="matrix(139.713,0,0,139.713,670.381,659.35)">
                    </g>
                    <g transform="matrix(139.713,0,0,139.713,1013.24,659.35)">
                    </g>
                    <text x="454.944px" y="659.35px" style="font-family:'Oswald-Light', 'Oswald';font-weight:300;font-size:139.713px;fill:white;">&lt;A<tspan x="670.381px " y="659.35px ">l</tspan>ia<tspan x="782.012px " y="659.35px ">t</tspan>ion&gt;</text>
                </g>
            </g>
        </g>
        <g transform="matrix(1,0,0,1,1275,1100)">
            <clipPath id="_clip4">
                <rect x="0" y="0" width="1275" height="1100"/>
            </clipPath>
            <g clip-path="url(#_clip4)">
                <g transform="matrix(1.22942,0,0,1.62906,-292.513,-444.35)">
                    <rect x="237.927" y="272.765" width="1037.07" height="675.235" style="fill:rgb(2,70,123);"/>
                </g>
                <g transform="matrix(1.43078,0,0,1.64587,276.615,-808.206)">
                    <g transform="matrix(42.8389,0,0,42.8389,640.247,1102.15)">
                    </g>
                    <text x="460.153px" y="1102.15px" style="font-family:'Oswald-Regular', 'Oswald';font-size:42.839px;fill:rgb(249,166,64);">ORGANIZER</text>
                </g>
                <g transform="matrix(0.347328,0,0,0.39954,11.194,15.0159)">
                    <g transform="matrix(4.76153,0,0,4.76153,-1464.74,-4717.94)">
                        <g transform="matrix(36.4826,0,0,36.4826,926.41,1102.15)">
                        </g>
                        <text x="352.648px" y="1102.15px" style="font-family:'Oswald-Regular', 'Oswald';font-size:36.483px;fill:white;">PROGRAMMING LANGUA<tspan x="678.328px " y="1102.15px ">G</tspan>ES AND SYSTEMS</text>
                    </g>
                    <g transform="matrix(3.74465,0,0,3.74465,-1503.58,-3435.59)">
                        <g transform="matrix(42.8389,0,0,42.8389,602.678,1102.15)">
                        </g>
                        <text x="460.153px" y="1102.15px" style="font-family:'Oswald-Regular', 'Oswald';font-size:42.839px;fill:white;">SEMINAR</text>
                    </g>
                    <g transform="matrix(3.74465,0,0,3.74465,405.782,-3435.59)">
                        <g transform="matrix(42.8389,0,0,42.8389,678.845,1102.15)">
                        </g>
                        <text x="451.927px" y="1102.15px" style="font-family:'Oswald-Medium', 'Oswald';font-weight:500;font-size:42.839px;fill:rgb(249,166,64);">MA<tspan x="502.22px " y="1102.15px ">Y</tspan> 19, 2023</text>
                    </g>
                    <g transform="matrix(3.74465,0,0,3.74465,-1509.5,-3770.96)">
                        <g transform="matrix(42.8389,0,0,42.8389,652.114,1102.15)">
                        </g>
                        <text x="460.153px" y="1102.15px" style="font-family:'Oswald-Regular', 'Oswald';font-size:42.839px;fill:white;">NEW JERSEY</text>
                    </g>
                </g>
                <g transform="matrix(0.360809,-0.0567519,0.046054,0.387442,-52.9477,-30.2554)">
                    <g transform="matrix(1.02417,0.163216,-0.268816,2.28085,361.026,-865.601)">
                        <path d="M1727.67,-198.343L3764.05,1322.26L3791.81,-219.555L1727.67,-198.343Z" style="fill:white;fill-opacity:0.52;"/>
                    </g>
                    <g transform="matrix(0.988777,-0.296468,0.615553,2.22231,-28.8937,435.286)">
                        <path d="M1727.67,-198.343L3764.05,1322.26L3791.81,-219.555L1727.67,-198.343Z" style="fill:white;fill-opacity:0.52;"/>
                    </g>
                    <g transform="matrix(0.783617,-0.705252,1.39424,1.78222,107.964,1806.07)">
                        <path d="M1727.67,-198.343L3764.05,1322.26L3791.81,-219.555L1727.67,-198.343Z" style="fill:white;fill-opacity:0.52;"/>
                    </g>
                </g>
                <g transform="matrix(1.15668,0,0,1.33056,-115.129,-209.969)">
                    <g transform="matrix(139.713,0,0,139.713,454.944,659.35)">
                    </g>
                    <g transform="matrix(139.713,0,0,139.713,846.28,659.35)">
                    </g>
                    <text x="454.944px" y="659.35px" style="font-family:'Oswald-Regular', 'Oswald';font-size:139.713px;fill:white;">&lt;Name&gt;</text>
                </g>
                <g transform="matrix(0.633911,0,0,0.729204,172.108,333.22)">
                    <g transform="matrix(139.713,0,0,139.713,454.944,659.35)">
                    </g>
                    <g transform="matrix(139.713,0,0,139.713,572.303,659.35)">
                        <path d="M0.092,-0L0.092,-0.525L0.018,-0.525L0.018,-0.578L0.092,-0.578L0.092,-0.638C0.092,-0.667 0.094,-0.692 0.099,-0.714C0.104,-0.736 0.114,-0.753 0.129,-0.766C0.143,-0.779 0.167,-0.785 0.198,-0.785C0.209,-0.785 0.219,-0.785 0.229,-0.784C0.239,-0.783 0.248,-0.781 0.257,-0.778L0.257,-0.724C0.251,-0.725 0.244,-0.727 0.237,-0.728C0.229,-0.729 0.222,-0.729 0.216,-0.729C0.194,-0.729 0.18,-0.722 0.175,-0.709C0.169,-0.695 0.166,-0.674 0.166,-0.645L0.166,-0.578L0.328,-0.578L0.328,-0.638C0.328,-0.667 0.33,-0.692 0.335,-0.714C0.339,-0.736 0.349,-0.753 0.364,-0.766C0.379,-0.779 0.402,-0.785 0.434,-0.785C0.445,-0.785 0.455,-0.785 0.465,-0.784C0.475,-0.783 0.484,-0.781 0.493,-0.778L0.493,-0.724C0.486,-0.725 0.479,-0.727 0.472,-0.728C0.465,-0.729 0.458,-0.729 0.452,-0.729C0.43,-0.729 0.416,-0.722 0.41,-0.709C0.404,-0.695 0.401,-0.674 0.401,-0.645L0.401,-0.578L0.635,-0.578L0.635,-0L0.562,-0L0.562,-0.525L0.401,-0.525L0.401,-0L0.328,-0L0.328,-0.525L0.166,-0.525L0.166,-0L0.092,-0ZM0.562,-0.658L0.562,-0.757L0.635,-0.757L0.635,-0.658L0.562,-0.658Z" style="fill:white;fill-rule:nonzero;"/>
                    </g>
                    <g transform="matrix(139.713,0,0,139.713,670.381,659.35)">
                    </g>
                    <g transform="matrix(139.713,0,0,139.713,670.381,659.35)">
                    </g>
                    <g transform="matrix(139.713,0,0,139.713,670.381,659.35)">
                    </g>
                    <g transform="matrix(139.713,0,0,139.713,1013.24,659.35)">
                    </g>
                    <text x="454.944px" y="659.35px" style="font-family:'Oswald-Light', 'Oswald';font-weight:300;font-size:139.713px;fill:white;">&lt;A<tspan x="670.381px " y="659.35px ">l</tspan>ia<tspan x="782.012px " y="659.35px ">t</tspan>ion&gt;</text>
                </g>
            </g>
        </g>
        <g transform="matrix(1,0,0,1,0,2200)">
            <clipPath id="_clip5">
                <rect x="0" y="0" width="1275" height="1100"/>
            </clipPath>
            <g clip-path="url(#_clip5)">
                <g transform="matrix(1.22942,0,0,1.62906,-292.513,-444.35)">
                    <rect x="237.927" y="272.765" width="1037.07" height="675.235" style="fill:rgb(2,70,123);"/>
                </g>
                <g transform="matrix(1.43078,0,0,1.64587,276.615,-808.206)">
                    <g transform="matrix(42.8389,0,0,42.8389,640.247,1102.15)">
                    </g>
                    <text x="460.153px" y="1102.15px" style="font-family:'Oswald-Regular', 'Oswald';font-size:42.839px;fill:rgb(249,166,64);">ORGANIZER</text>
                </g>
                <g transform="matrix(0.347328,0,0,0.39954,11.194,15.0159)">
                    <g transform="matrix(4.76153,0,0,4.76153,-1464.74,-4717.94)">
                        <g transform="matrix(36.4826,0,0,36.4826,926.41,1102.15)">
                        </g>
                        <text x="352.648px" y="1102.15px" style="font-family:'Oswald-Regular', 'Oswald';font-size:36.483px;fill:white;">PROGRAMMING LANGUA<tspan x="678.328px " y="1102.15px ">G</tspan>ES AND SYSTEMS</text>
                    </g>
                    <g transform="matrix(3.74465,0,0,3.74465,-1503.58,-3435.59)">
                        <g transform="matrix(42.8389,0,0,42.8389,602.678,1102.15)">
                        </g>
                        <text x="460.153px" y="1102.15px" style="font-family:'Oswald-Regular', 'Oswald';font-size:42.839px;fill:white;">SEMINAR</text>
                    </g>
                    <g transform="matrix(3.74465,0,0,3.74465,405.782,-3435.59)">
                        <g transform="matrix(42.8389,0,0,42.8389,678.845,1102.15)">
                        </g>
                        <text x="451.927px" y="1102.15px" style="font-family:'Oswald-Medium', 'Oswald';font-weight:500;font-size:42.839px;fill:rgb(249,166,64);">MA<tspan x="502.22px " y="1102.15px ">Y</tspan> 19, 2023</text>
                    </g>
                    <g transform="matrix(3.74465,0,0,3.74465,-1509.5,-3770.96)">
                        <g transform="matrix(42.8389,0,0,42.8389,652.114,1102.15)">
                        </g>
                        <text x="460.153px" y="1102.15px" style="font-family:'Oswald-Regular', 'Oswald';font-size:42.839px;fill:white;">NEW JERSEY</text>
                    </g>
                </g>
                <g transform="matrix(0.360809,-0.0567519,0.046054,0.387442,-52.9477,-30.2554)">
                    <g transform="matrix(1.02417,0.163216,-0.268816,2.28085,361.026,-865.601)">
                        <path d="M1727.67,-198.343L3764.05,1322.26L3791.81,-219.555L1727.67,-198.343Z" style="fill:white;fill-opacity:0.52;"/>
                    </g>
                    <g transform="matrix(0.988777,-0.296468,0.615553,2.22231,-28.8937,435.286)">
                        <path d="M1727.67,-198.343L3764.05,1322.26L3791.81,-219.555L1727.67,-198.343Z" style="fill:white;fill-opacity:0.52;"/>
                    </g>
                    <g transform="matrix(0.783617,-0.705252,1.39424,1.78222,107.964,1806.07)">
                        <path d="M1727.67,-198.343L3764.05,1322.26L3791.81,-219.555L1727.67,-198.343Z" style="fill:white;fill-opacity:0.52;"/>
                    </g>
                </g>
                <g transform="matrix(1.15668,0,0,1.33056,-115.129,-209.969)">
                    <g transform="matrix(139.713,0,0,139.713,454.944,659.35)">
                    </g>
                    <g transform="matrix(139.713,0,0,139.713,846.28,659.35)">
                    </g>
                    <text x="454.944px" y="659.35px" style="font-family:'Oswald-Regular', 'Oswald';font-size:139.713px;fill:white;">&lt;Name&gt;</text>
                </g>
                <g transform="matrix(0.633911,0,0,0.729204,172.108,333.22)">
                    <g transform="matrix(139.713,0,0,139.713,454.944,659.35)">
                    </g>
                    <g transform="matrix(139.713,0,0,139.713,572.303,659.35)">
                        <path d="M0.092,-0L0.092,-0.525L0.018,-0.525L0.018,-0.578L0.092,-0.578L0.092,-0.638C0.092,-0.667 0.094,-0.692 0.099,-0.714C0.104,-0.736 0.114,-0.753 0.129,-0.766C0.143,-0.779 0.167,-0.785 0.198,-0.785C0.209,-0.785 0.219,-0.785 0.229,-0.784C0.239,-0.783 0.248,-0.781 0.257,-0.778L0.257,-0.724C0.251,-0.725 0.244,-0.727 0.237,-0.728C0.229,-0.729 0.222,-0.729 0.216,-0.729C0.194,-0.729 0.18,-0.722 0.175,-0.709C0.169,-0.695 0.166,-0.674 0.166,-0.645L0.166,-0.578L0.328,-0.578L0.328,-0.638C0.328,-0.667 0.33,-0.692 0.335,-0.714C0.339,-0.736 0.349,-0.753 0.364,-0.766C0.379,-0.779 0.402,-0.785 0.434,-0.785C0.445,-0.785 0.455,-0.785 0.465,-0.784C0.475,-0.783 0.484,-0.781 0.493,-0.778L0.493,-0.724C0.486,-0.725 0.479,-0.727 0.472,-0.728C0.465,-0.729 0.458,-0.729 0.452,-0.729C0.43,-0.729 0.416,-0.722 0.41,-0.709C0.404,-0.695 0.401,-0.674 0.401,-0.645L0.401,-0.578L0.635,-0.578L0.635,-0L0.562,-0L0.562,-0.525L0.401,-0.525L0.401,-0L0.328,-0L0.328,-0.525L0.166,-0.525L0.166,-0L0.092,-0ZM0.562,-0.658L0.562,-0.757L0.635,-0.757L0.635,-0.658L0.562,-0.658Z" style="fill:white;fill-rule:nonzero;"/>
                    </g>
                    <g transform="matrix(139.713,0,0,139.713,670.381,659.35)">
                    </g>
                    <g transform="matrix(139.713,0,0,139.713,670.381,659.35)">
                    </g>
                    <g transform="matrix(139.713,0,0,139.713,670.381,659.35)">
                    </g>
                    <g transform="matrix(139.713,0,0,139.713,1013.24,659.35)">
                    </g>
                    <text x="454.944px" y="659.35px" style="font-family:'Oswald-Light', 'Oswald';font-weight:300;font-size:139.713px;fill:white;">&lt;A<tspan x="670.381px " y="659.35px ">l</tspan>ia<tspan x="782.012px " y="659.35px ">t</tspan>ion&gt;</text>
                </g>
            </g>
        </g>
        <g transform="matrix(1,0,0,1,1275,2200)">
            <clipPath id="_clip6">
                <rect x="0" y="0" width="1275" height="1100"/>
            </clipPath>
            <g clip-path="url(#_clip6)">
                <g transform="matrix(1.22942,0,0,1.62906,-292.513,-444.35)">
                    <rect x="237.927" y="272.765" width="1037.07" height="675.235" style="fill:rgb(2,70,123);"/>
                </g>
                <g transform="matrix(1.43078,0,0,1.64587,276.615,-808.206)">
                    <g transform="matrix(42.8389,0,0,42.8389,640.247,1102.15)">
                    </g>
                    <text x="460.153px" y="1102.15px" style="font-family:'Oswald-Regular', 'Oswald';font-size:42.839px;fill:rgb(249,166,64);">ORGANIZER</text>
                </g>
                <g transform="matrix(0.347328,0,0,0.39954,11.194,15.0159)">
                    <g transform="matrix(4.76153,0,0,4.76153,-1464.74,-4717.94)">
                        <g transform="matrix(36.4826,0,0,36.4826,926.41,1102.15)">
                        </g>
                        <text x="352.648px" y="1102.15px" style="font-family:'Oswald-Regular', 'Oswald';font-size:36.483px;fill:white;">PROGRAMMING LANGUA<tspan x="678.328px " y="1102.15px ">G</tspan>ES AND SYSTEMS</text>
                    </g>
                    <g transform="matrix(3.74465,0,0,3.74465,-1503.58,-3435.59)">
                        <g transform="matrix(42.8389,0,0,42.8389,602.678,1102.15)">
                        </g>
                        <text x="460.153px" y="1102.15px" style="font-family:'Oswald-Regular', 'Oswald';font-size:42.839px;fill:white;">SEMINAR</text>
                    </g>
                    <g transform="matrix(3.74465,0,0,3.74465,405.782,-3435.59)">
                        <g transform="matrix(42.8389,0,0,42.8389,678.845,1102.15)">
                        </g>
                        <text x="451.927px" y="1102.15px" style="font-family:'Oswald-Medium', 'Oswald';font-weight:500;font-size:42.839px;fill:rgb(249,166,64);">MA<tspan x="502.22px " y="1102.15px ">Y</tspan> 19, 2023</text>
                    </g>
                    <g transform="matrix(3.74465,0,0,3.74465,-1509.5,-3770.96)">
                        <g transform="matrix(42.8389,0,0,42.8389,652.114,1102.15)">
                        </g>
                        <text x="460.153px" y="1102.15px" style="font-family:'Oswald-Regular', 'Oswald';font-size:42.839px;fill:white;">NEW JERSEY</text>
                    </g>
                </g>
                <g transform="matrix(0.360809,-0.0567519,0.046054,0.387442,-52.9477,-30.2554)">
                    <g transform="matrix(1.02417,0.163216,-0.268816,2.28085,361.026,-865.601)">
                        <path d="M1727.67,-198.343L3764.05,1322.26L3791.81,-219.555L1727.67,-198.343Z" style="fill:white;fill-opacity:0.52;"/>
                    </g>
                    <g transform="matrix(0.988777,-0.296468,0.615553,2.22231,-28.8937,435.286)">
                        <path d="M1727.67,-198.343L3764.05,1322.26L3791.81,-219.555L1727.67,-198.343Z" style="fill:white;fill-opacity:0.52;"/>
                    </g>
                    <g transform="matrix(0.783617,-0.705252,1.39424,1.78222,107.964,1806.07)">
                        <path d="M1727.67,-198.343L3764.05,1322.26L3791.81,-219.555L1727.67,-198.343Z" style="fill:white;fill-opacity:0.52;"/>
                    </g>
                </g>
                <g transform="matrix(1.15668,0,0,1.33056,-115.129,-209.969)">
                    <g transform="matrix(139.713,0,0,139.713,454.944,659.35)">
                    </g>
                    <g transform="matrix(139.713,0,0,139.713,846.28,659.35)">
                    </g>
                    <text x="454.944px" y="659.35px" style="font-family:'Oswald-Regular', 'Oswald';font-size:139.713px;fill:white;">&lt;Name&gt;</text>
                </g>
                <g transform="matrix(0.633911,0,0,0.729204,172.108,333.22)">
                    <g transform="matrix(139.713,0,0,139.713,454.944,659.35)">
                    </g>
                    <g transform="matrix(139.713,0,0,139.713,572.303,659.35)">
                        <path d="M0.092,-0L0.092,-0.525L0.018,-0.525L0.018,-0.578L0.092,-0.578L0.092,-0.638C0.092,-0.667 0.094,-0.692 0.099,-0.714C0.104,-0.736 0.114,-0.753 0.129,-0.766C0.143,-0.779 0.167,-0.785 0.198,-0.785C0.209,-0.785 0.219,-0.785 0.229,-0.784C0.239,-0.783 0.248,-0.781 0.257,-0.778L0.257,-0.724C0.251,-0.725 0.244,-0.727 0.237,-0.728C0.229,-0.729 0.222,-0.729 0.216,-0.729C0.194,-0.729 0.18,-0.722 0.175,-0.709C0.169,-0.695 0.166,-0.674 0.166,-0.645L0.166,-0.578L0.328,-0.578L0.328,-0.638C0.328,-0.667 0.33,-0.692 0.335,-0.714C0.339,-0.736 0.349,-0.753 0.364,-0.766C0.379,-0.779 0.402,-0.785 0.434,-0.785C0.445,-0.785 0.455,-0.785 0.465,-0.784C0.475,-0.783 0.484,-0.781 0.493,-0.778L0.493,-0.724C0.486,-0.725 0.479,-0.727 0.472,-0.728C0.465,-0.729 0.458,-0.729 0.452,-0.729C0.43,-0.729 0.416,-0.722 0.41,-0.709C0.404,-0.695 0.401,-0.674 0.401,-0.645L0.401,-0.578L0.635,-0.578L0.635,-0L0.562,-0L0.562,-0.525L0.401,-0.525L0.401,-0L0.328,-0L0.328,-0.525L0.166,-0.525L0.166,-0L0.092,-0ZM0.562,-0.658L0.562,-0.757L0.635,-0.757L0.635,-0.658L0.562,-0.658Z" style="fill:white;fill-rule:nonzero;"/>
                    </g>
                    <g transform="matrix(139.713,0,0,139.713,670.381,659.35)">
                    </g>
                    <g transform="matrix(139.713,0,0,139.713,670.381,659.35)">
                    </g>
                    <g transform="matrix(139.713,0,0,139.713,670.381,659.35)">
                    </g>
                    <g transform="matrix(139.713,0,0,139.713,1013.24,659.35)">
                    </g>
                    <text x="454.944px" y="659.35px" style="font-family:'Oswald-Light', 'Oswald';font-weight:300;font-size:139.713px;fill:white;">&lt;A<tspan x="670.381px " y="659.35px ">l</tspan>ia<tspan x="782.012px " y="659.35px ">t</tspan>ion&gt;</text>
                </g>
            </g>
        </g>
    </g>
</svg>
